<svg width="60" height="64" viewBox="0 0 60 64" fill="none" xmlns="http://www.w3.org/2000/svg">
<path d="M56.3804 3.1609C51.5513 -1.8871 44.9451 -0.262315 39.974 3.65645C39.9681 3.66131 39.9623 3.66667 39.9565 3.67105C39.8927 3.71579 39.8276 3.76004 39.7644 3.80575C37.4874 5.45291 35.6073 7.49254 34.0229 9.75927C31.6827 12.3723 29.7287 15.3758 27.9838 18.4338C27.3831 15.0441 26.0438 11.7979 23.8136 9.18738C22.7271 7.69341 21.3601 6.3988 19.6341 5.42081C16.6092 3.70653 13.3572 3.53878 10.5171 4.69038C8.09671 5.12564 5.86498 6.46009 4.16481 8.7205C0.499908 13.592 -1.10886 20.6519 0.824749 26.5096C2.96504 32.9932 9.06934 36.9474 13.7886 41.4449C19.7645 47.1397 24.8047 53.583 29.0508 60.6273C29.2375 61.1613 29.4145 61.6996 29.5736 62.2477C29.6796 62.6115 30.1751 62.789 30.4776 62.5872C30.7587 62.6319 31.069 62.5026 31.1205 62.185C31.192 61.7434 31.2756 61.3067 31.3666 60.8724C31.4079 60.7849 31.4488 60.6969 31.4906 60.6093C31.8782 61.5445 32.2405 62.4938 32.5668 63.4621C32.7721 64.0709 33.8133 64.0184 33.7544 63.3016C33.0609 54.7881 40.5187 46.9078 45.5093 40.7621C50.1556 35.0406 54.9614 29.2636 57.8662 22.4157C60.4899 16.2254 61.4177 8.42628 56.3804 3.1609ZM30.1736 60.2499C27.8845 53.6272 23.6677 48.1629 19.3127 42.7658C23.922 47.5137 27.9089 52.8117 30.6896 58.7822C30.5408 59.3274 30.4022 59.8764 30.2826 60.4328C30.2461 60.3715 30.2101 60.3107 30.1736 60.2499ZM39.92 42.3743C36.2137 46.7594 33.0298 51.6285 31.2188 57.0432C29.042 52.6838 26.2053 48.6677 22.9834 44.9848C20.4497 42.0893 17.4851 39.525 14.6197 36.8784C12.3476 33.9172 10.2243 30.8602 8.53486 27.5338C6.67955 23.8805 5.25366 19.742 5.35482 15.6014C5.46278 11.1993 7.94399 6.62932 12.2479 5.60659C20.2381 5.48842 24.1618 13.7111 26.3463 20.4515C26.3774 20.7686 26.4056 21.0857 26.43 21.4003C26.4484 21.644 26.6099 21.8341 26.8078 21.9314C26.8108 21.9401 26.8137 21.9499 26.8161 21.9586C26.8803 22.1736 27.0559 22.2572 27.229 22.2499C27.2606 23.0164 27.2538 23.7682 27.2091 24.4938C27.1697 25.1299 28.1073 25.2116 28.2862 24.6397C28.5168 23.9015 28.7662 23.1593 29.025 22.4167C29.22 22.3817 29.3999 22.2572 29.4797 22.0184C30.6332 18.5753 32.0888 15.0105 34.0608 11.8237C34.357 11.3675 34.6629 10.9196 34.979 10.479C37.7238 7.41764 40.9981 4.93986 45.0453 3.76345C48.5191 2.75337 51.9462 3.37779 54.3802 5.57887C54.8067 6.20379 55.1865 6.90507 55.5002 7.70117C57.1264 11.8266 57.0739 16.4865 55.6617 20.6558C53.5695 26.8315 49.0409 31.8182 44.9422 36.8769C44.9346 36.885 44.9269 36.8931 44.9193 36.9011C43.2122 38.7002 41.5065 40.4977 39.92 42.3743ZM37.484 47.378C36.2848 49.2844 35.1341 51.2209 34.0375 53.1881C35.0227 51.1679 36.187 49.2324 37.484 47.378ZM48.2429 2.07398C46.7975 2.09878 45.3162 2.37842 43.8626 2.87155C45.357 2.27435 46.8413 2.00346 48.2429 2.07398ZM22.1868 9.03321C23.6468 10.7037 24.6165 12.6767 25.2657 14.7689C23.7537 11.3228 21.6314 8.21279 18.322 6.26848C19.5091 6.7728 20.5718 7.47602 21.5133 8.32902C21.7467 8.55662 21.9738 8.78956 22.1868 9.03321ZM9.68307 31.9335C8.72211 30.8437 7.8195 29.7081 7.0054 28.5025C4.42645 24.683 3.2189 19.1671 4.2251 14.3798C3.84188 18.3725 5.02219 22.6506 6.59252 26.2207C7.4679 28.2127 8.52125 30.1059 9.68307 31.9335ZM56.7671 5.55895C57.8287 7.14435 58.4293 8.89266 58.6861 10.7013C58.3525 9.22579 57.7679 7.80426 56.8697 6.48974C56.4252 5.83953 55.9408 5.26812 55.4229 4.77061C55.3499 4.65876 55.2857 4.54205 55.2094 4.43214C54.4979 3.40795 53.6775 2.62594 52.7827 2.05305C54.2941 2.7587 55.6622 3.90936 56.7671 5.55895ZM29.4651 18.2762C29.0551 19.2372 28.6714 20.2088 28.3115 21.1873C28.296 20.9325 28.2726 20.6781 28.2488 20.4233C28.6413 19.7098 29.0459 18.9925 29.4651 18.2762ZM17.3543 43.451C12.2421 38.1175 4.34084 33.5184 1.9214 26.2066C0.234359 21.108 1.54158 12.5269 5.9311 8.23175C5.85426 8.33047 5.77256 8.42191 5.69815 8.52403C1.86985 13.7554 1.68556 21.0754 4.57868 26.7625C6.66304 30.8597 9.97388 34.0573 13.3601 37.1449C14.645 38.8246 15.976 40.4689 17.2974 42.1034C20.1307 45.6093 22.9907 49.155 25.344 52.9848C22.8857 49.6341 20.2163 46.437 17.3543 43.451ZM32.1982 59.1387C32.6573 58.2064 33.1285 57.2805 33.611 56.3608C33.1563 57.6136 32.8212 58.8936 32.6466 60.1998C32.5012 59.8443 32.3524 59.4903 32.1982 59.1387ZM42.8544 42.207C41.6304 43.7374 40.309 45.3535 39.0324 47.0469C40.1879 45.2509 41.3877 43.4817 42.638 41.7455C43.6962 40.2768 44.8313 38.8446 45.9883 37.4192C47.7118 35.6013 49.4324 33.7776 51.0416 31.8688C48.4529 35.4403 45.5613 38.8227 42.8544 42.207Z" fill="#8F775B"/>
<path d="M39.92 42.3743C36.2137 46.7594 33.0298 51.6285 31.2188 57.0432C29.042 52.6838 26.2053 48.6677 22.9834 44.9848C20.4497 42.0893 17.4851 39.525 14.6197 36.8784C12.3476 33.9172 10.2243 30.8602 8.53486 27.5338C6.67955 23.8805 5.25366 19.742 5.35482 15.6014C5.46278 11.1993 7.94399 6.62932 12.2479 5.60659C20.2381 5.48842 24.1618 13.7111 26.3463 20.4515C26.3774 20.7686 26.4056 21.0857 26.43 21.4003C26.4484 21.644 26.6099 21.8341 26.8078 21.9314C26.8108 21.9401 26.8137 21.9499 26.8161 21.9586C26.8803 22.1736 27.0559 22.2572 27.229 22.2499C27.2606 23.0164 27.2538 23.7682 27.2091 24.4938C27.1697 25.1299 28.1073 25.2116 28.2862 24.6397C28.5168 23.9015 28.7662 23.1593 29.025 22.4167C29.22 22.3817 29.3999 22.2572 29.4797 22.0184C30.6332 18.5753 32.0888 15.0105 34.0608 11.8237C34.357 11.3675 34.6629 10.9196 34.979 10.479C37.7238 7.41764 40.9981 4.93986 45.0453 3.76345C48.5191 2.75337 51.9462 3.37779 54.3802 5.57887C54.8067 6.20379 55.1865 6.90507 55.5002 7.70117C57.1264 11.8266 57.0739 16.4865 55.6617 20.6558C53.5695 26.8315 49.0409 31.8182 44.9422 36.8769L44.9193 36.9011C43.2122 38.7002 41.5065 40.4977 39.92 42.3743Z" fill="#8F775B"/>
</svg>
